<svg width="45" height="45" viewBox="0 0 45 45" fill="none" xmlns="http://www.w3.org/2000/svg">
<path d="M7.75255 37.7875H8.75576C9.21544 37.7875 9.58839 37.465 9.58839 37.0675V8.54251C9.58839 8.14501 9.21544 7.82251 8.75576 7.82251H7.75255C7.29287 7.82251 6.91992 8.14501 6.91992 8.54251V37.0675C6.91992 37.465 7.29287 37.7875 7.75255 37.7875Z" fill="#5C7542" stroke="#5C7542" stroke-width="2" stroke-miterlimit="10"/>
<path d="M16.4311 37.7875C19.2397 37.7875 21.5165 35.8187 21.5165 33.39C21.5165 30.9613 19.2397 28.9925 16.4311 28.9925C13.6225 28.9925 11.3457 30.9613 11.3457 33.39C11.3457 35.8187 13.6225 37.7875 16.4311 37.7875Z" fill="#CFBC62" stroke="#CFBC62" stroke-width="2" stroke-miterlimit="10"/>
<path d="M28.0201 37.7877H29.0233C29.483 37.7877 29.856 37.4652 29.856 37.0677V8.54269C29.856 8.14519 29.483 7.82269 29.0233 7.82269H28.0201C27.5605 7.82269 27.1875 8.14519 27.1875 8.54269V37.0677C27.1889 37.4652 27.5605 37.7877 28.0201 37.7877Z" fill="#5C7542" stroke="#5C7542" stroke-width="2" stroke-miterlimit="10"/>
<path d="M36.7006 37.7873C39.5092 37.7873 41.7861 35.8185 41.7861 33.3898C41.7861 30.9611 39.5092 28.9923 36.7006 28.9923C33.8921 28.9923 31.6152 30.9611 31.6152 33.3898C31.6152 35.8185 33.8921 37.7873 36.7006 37.7873Z" fill="#CFBC62" stroke="#CFBC62" stroke-width="2" stroke-miterlimit="10"/>
</svg>
